<svg xmlns="http://www.w3.org/2000/svg" viewBox="0 0 878.28 91.7"><title>Asset 1</title><g id="Layer_2" data-name="Layer 2"><g id="Layer_1-2" data-name="Layer 1"><path d="M75.2,39.67c-11.48,16-21.65,35.71-21.65,35.71H0S40.1-2.39,60.64.06C72.08,1.42,70.63,20.68,75.2,39.67Z" style="fill:#d2cfc2"/><path d="M107.11,75.38H53.55S63.72,55.66,75.2,39.67C78.84,54.79,86.3,69.74,107.11,75.38Z" style="fill:#7c857d"/><path d="M132.84,75.38H107.11C86.3,69.74,78.84,54.79,75.2,39.67c8.14-11.33,16.94-20.8,23.25-20C113.65,21.44,98.09,66,132.84,75.38Z" style="fill:#a4a79d"/><path d="M258.11,22.81a1.65,1.65,0,0,1,.93,1.5,3.17,3.17,0,0,1-.24,1.05,2.32,2.32,0,0,1-.69,1.09,14.79,14.79,0,0,1-1.34.93A7.67,7.67,0,0,0,254.7,29a7.69,7.69,0,0,0-1.34,2.76l-9.89,34.87a6.87,6.87,0,0,0-.32,2,3.51,3.51,0,0,0,.28,1.5,15.54,15.54,0,0,0,.77,1.42,6,6,0,0,1,.57.85,1.92,1.92,0,0,1,.24.93,4.93,4.93,0,0,1-.16.81,2.42,2.42,0,0,1-1.5,1.54,9.14,9.14,0,0,1-3.37.49H220.93a5.09,5.09,0,0,1-2.64-.57,1.73,1.73,0,0,1-.93-1.54A2.68,2.68,0,0,1,217.6,73a3.24,3.24,0,0,1,.69-1,3.9,3.9,0,0,1,.81-.65,2.44,2.44,0,0,0,.53-.37,8.34,8.34,0,0,0,2.11-1.62,7.27,7.27,0,0,0,1.38-2.76l6.16-21.9-21,26a27.23,27.23,0,0,1-4.18,4.34,5.89,5.89,0,0,1-3.61,1.18,3.82,3.82,0,0,1-3-1.26,11.79,11.79,0,0,1-2-4.26l-7.62-25.06-6,21a6.87,6.87,0,0,0-.32,2,4.05,4.05,0,0,0,.28,1.62,6.58,6.58,0,0,0,.85,1.38,3.32,3.32,0,0,1,.73,1.7,5,5,0,0,1-.16.81,2.31,2.31,0,0,1-1.46,1.58,9.84,9.84,0,0,1-3.41.45h-6.73a5.08,5.08,0,0,1-2.64-.57,1.73,1.73,0,0,1-.93-1.54,3.33,3.33,0,0,1,1.3-2.43c.49-.33.78-.51.89-.57a10.8,10.8,0,0,0,2.11-1.66,6.89,6.89,0,0,0,1.38-2.8l9.89-35-1.3-4.3a7.42,7.42,0,0,1-.41-2.35,2.39,2.39,0,0,1,.93-2.11,5.1,5.1,0,0,1,2.88-.65H198.3a5.28,5.28,0,0,1,3.61,1.05A7.64,7.64,0,0,1,203.82,27l8.11,26.92,22-27.33A11.28,11.28,0,0,1,238,23.13a14,14,0,0,1,5.35-.85h12.08A5.42,5.42,0,0,1,258.11,22.81Z" style="fill:#d2cfc2"/><path d="M300,37.85a14.61,14.61,0,0,1,5.23,11.68,25.92,25.92,0,0,1-.65,5.43,27.27,27.27,0,0,1-5.76,11.64,28.45,28.45,0,0,1-10.34,7.7A32.3,32.3,0,0,1,275.18,77q-11.27,0-16.67-4.5a14.79,14.79,0,0,1-5.39-12,27.32,27.32,0,0,1,.65-5.6,26,26,0,0,1,5.88-11.23,29.7,29.7,0,0,1,10.62-7.62,33.45,33.45,0,0,1,13.42-2.72Q294.72,33.39,300,37.85Zm-20.11,5.8q-1.91,3-4.5,11.47T272.75,67a3.62,3.62,0,0,0,.57,2.39,2,2,0,0,0,1.54.61q1.7.16,3.53-2.92T283,55q2.51-7.86,2.51-11.43a3.86,3.86,0,0,0-.53-2.35,1.82,1.82,0,0,0-1.5-.65Q281.75,40.61,279.84,43.65Z" style="fill:#d2cfc2"/><path d="M353.68,65.1a4.38,4.38,0,0,0-.16,1,1.3,1.3,0,0,0,.28.89,1,1,0,0,0,.77.32,2.07,2.07,0,0,0,1.66-.85q.69-.85.93-.85c.27,0,.5.18.69.53a2.63,2.63,0,0,1,.28,1.26,7,7,0,0,1-1.62,4.5,12.72,12.72,0,0,1-4.79,3.69A15.92,15.92,0,0,1,344.84,77a13.27,13.27,0,0,1-7.62-1.95A8.64,8.64,0,0,1,333.57,70a20.34,20.34,0,0,1-6.45,4.91,16.67,16.67,0,0,1-7.18,1.66,15.78,15.78,0,0,1-9.53-2.8,9.12,9.12,0,0,1-3.85-7.83,14.84,14.84,0,0,1,.81-4.7l5.19-16.95a4,4,0,0,0,.24-1.22,2.28,2.28,0,0,0-.41-1.42,5.61,5.61,0,0,0-1.22-1.09,5.5,5.5,0,0,1-1.14-1.13,1.5,1.5,0,0,1-.08-1.3q.49-1.86,5.11-3.28a32.72,32.72,0,0,1,9.65-1.42q4.7,0,6.89,1.78A5.94,5.94,0,0,1,333.81,40a11.22,11.22,0,0,1-.57,3.57l-5.11,16.87a5,5,0,0,0-.32,1.7,2.14,2.14,0,0,0,.65,1.7,2.49,2.49,0,0,0,1.7.57,3.57,3.57,0,0,0,2.51-.89,9.53,9.53,0,0,0,1.95-3l4.95-16.3a4,4,0,0,0,.24-1.22,2.28,2.28,0,0,0-.41-1.42,6.42,6.42,0,0,0-1.14-1.09,5.5,5.5,0,0,1-1.14-1.13,1.5,1.5,0,0,1-.08-1.3q.41-1.86,5-3.28a32.72,32.72,0,0,1,9.65-1.42q4.7,0,6.93,1.78A5.81,5.81,0,0,1,360.9,40a12.7,12.7,0,0,1-.65,3.65Z" style="fill:#d2cfc2"/><path d="M411.34,65.1a2.24,2.24,0,0,0-.16,1,1.3,1.3,0,0,0,.28.89,1,1,0,0,0,.77.32,2.07,2.07,0,0,0,1.66-.85q.69-.85.93-.85c.27,0,.49.18.65.53a3,3,0,0,1,.24,1.26A7.27,7.27,0,0,1,414.18,72a11.66,11.66,0,0,1-4.74,3.65,18,18,0,0,1-7.5,1.42q-5.35,0-8.51-2.47a8.18,8.18,0,0,1-3.24-6.61,18.7,18.7,0,0,1,1.46-6.73l4.46-11.68a5,5,0,0,0,.41-1.7,2.11,2.11,0,0,0-.69-1.66,2.43,2.43,0,0,0-1.66-.61,4.76,4.76,0,0,0-3.41,1.66,9.77,9.77,0,0,0-2.35,4.1l-5,16.54a5,5,0,0,0-.33,1.7,2.79,2.79,0,0,0,.41,1.58,6.66,6.66,0,0,0,1.13,1.26,3.92,3.92,0,0,1,.81.89,1.19,1.19,0,0,1,.08,1,2.43,2.43,0,0,1-1.54,1.54,11,11,0,0,1-3.81.49H361.63a5.2,5.2,0,0,1-3-.69,1.67,1.67,0,0,1-.69-1.82,3.23,3.23,0,0,1,1.7-1.7,7.38,7.38,0,0,0,2-1.54A7.3,7.3,0,0,0,363,67.7l7.22-23.44a3.17,3.17,0,0,0,.16-1.13,2.26,2.26,0,0,0-.37-1.38,9.35,9.35,0,0,0-1.18-1.22,5.5,5.5,0,0,1-1.14-1.13,1.5,1.5,0,0,1-.08-1.3q.49-1.86,5.11-3.28a32.72,32.72,0,0,1,9.65-1.42,8.93,8.93,0,0,1,6.41,2.23,7.47,7.47,0,0,1,2.11,6.2A19.33,19.33,0,0,1,398,35.22a18.21,18.21,0,0,1,8.11-1.82,10.89,10.89,0,0,1,8,3,10.46,10.46,0,0,1,3,7.79,15.59,15.59,0,0,1-.81,4.95Z" style="fill:#d2cfc2"/><path d="M457.85,35.1a2.12,2.12,0,0,1,.85,1.78,6.83,6.83,0,0,1-.16,1.13,4.6,4.6,0,0,1-4.87,3.57H449l-6.08,20a7.9,7.9,0,0,0-.41,2.51,2.3,2.3,0,0,0,.81,2,3.91,3.91,0,0,0,2.27.57,20.32,20.32,0,0,0,3.24-.32,7.16,7.16,0,0,1,1.7-.24,1,1,0,0,1,.85.36,1.48,1.48,0,0,1,.28.93q.08,1.62-2.39,3.93a21,21,0,0,1-6.69,4A25.24,25.24,0,0,1,433.23,77a14.29,14.29,0,0,1-8.84-2.51,8.17,8.17,0,0,1-3.33-6.89,11.77,11.77,0,0,1,.65-3.89l5.19-16.06a8.29,8.29,0,0,0,.41-2.19,4.79,4.79,0,0,0-.77-2.76,12.91,12.91,0,0,0-2.15-2.35,10.55,10.55,0,0,1-1.7-1.91,2.32,2.32,0,0,1-.24-1.83A2.71,2.71,0,0,1,423.83,35a7.35,7.35,0,0,1,3.33-.57h4.54l5.11-5.11a18.52,18.52,0,0,1,4.91-3.73,13.66,13.66,0,0,1,5.8-1.05q5.11,0,5.11,3.89a7.69,7.69,0,0,1-.32,2.27l-1.13,3.73h4.3A3.88,3.88,0,0,1,457.85,35.1Z" style="fill:#d2cfc2"/><path d="M497.95,36.84q5.6,3.45,5.6,10.5a22.4,22.4,0,0,1-1,6.08l-3.33,11.19a3.43,3.43,0,0,0-.08.81q0,1.3,1.05,1.3a2.08,2.08,0,0,0,1.66-.85q.69-.85.93-.85c.27,0,.5.19.69.57a2.86,2.86,0,0,1,.28,1.3,6.92,6.92,0,0,1-1.66,4.46,13.18,13.18,0,0,1-4.66,3.73,14.12,14.12,0,0,1-6.41,1.46A15.62,15.62,0,0,1,483.84,75a8.28,8.28,0,0,1-4.14-4.54,16.86,16.86,0,0,1-5.76,4.5,16.41,16.41,0,0,1-7.14,1.58,14.4,14.4,0,0,1-7.22-1.66,10.87,10.87,0,0,1-4.34-4.3A11.55,11.55,0,0,1,453.83,65a12.8,12.8,0,0,1,.24-2.51,13.17,13.17,0,0,1,5.64-8.43,18.47,18.47,0,0,1,10.34-2.84,42.53,42.53,0,0,1,13.22,2.11l2-5.35a19.36,19.36,0,0,0,1.05-5.27,3.73,3.73,0,0,0-1.3-2.92,5.92,5.92,0,0,0-3.73-1,7.56,7.56,0,0,1,.49,2.68,7,7,0,0,1-2.27,5.19,9,9,0,0,1-6.49,2.19,9.84,9.84,0,0,1-6.2-1.74,5.3,5.3,0,0,1-2.23-4.34q0-4.05,4.54-6.73T483,33.39Q492.35,33.39,497.95,36.84ZM474.79,59.71a5.86,5.86,0,0,0-1.42,3.77,3.42,3.42,0,0,0,.61,2.11,2,2,0,0,0,1.74.81,4.22,4.22,0,0,0,2.31-.85A4.79,4.79,0,0,0,479.86,63l1.7-4.78a17.82,17.82,0,0,0-3.08-.24A4.53,4.53,0,0,0,474.79,59.71Z" style="fill:#d2cfc2"/><path d="M535.33,35.18A5.94,5.94,0,0,1,537.52,40a11.25,11.25,0,0,1-.57,3.57l-7.46,24.25a7.15,7.15,0,0,0-.24,1.7,3,3,0,0,0,.41,1.66,5.1,5.1,0,0,0,1.13,1.18,6.77,6.77,0,0,1,.81.93,1.09,1.09,0,0,1,.08.93,2.7,2.7,0,0,1-1.62,1.54,10.69,10.69,0,0,1-3.73.49H507.84a5.41,5.41,0,0,1-3.08-.69,1.54,1.54,0,0,1-.65-1.82,3.24,3.24,0,0,1,1.7-1.7,7.41,7.41,0,0,0,2-1.54,7.3,7.3,0,0,0,1.38-2.84l7.06-23.44a4,4,0,0,0,.24-1.22,2.28,2.28,0,0,0-.41-1.42,5.61,5.61,0,0,0-1.22-1.09,5.5,5.5,0,0,1-1.14-1.13,1.5,1.5,0,0,1-.08-1.3q.49-1.86,5.11-3.28a32.72,32.72,0,0,1,9.65-1.42Q533.14,33.39,535.33,35.18Zm3.81-17.64a6.83,6.83,0,0,1,2.11,5.07,8.61,8.61,0,0,1-1.09,4.14A8.75,8.75,0,0,1,537.08,30a8.09,8.09,0,0,1-4.42,1.26,7,7,0,0,1-5.15-2.07,7.27,7.27,0,0,1-2.15-5.15,8.49,8.49,0,0,1,1.05-4,9,9,0,0,1,3-3.28,7.86,7.86,0,0,1,4.46-1.3A7.23,7.23,0,0,1,539.14,17.54Z" style="fill:#d2cfc2"/><path d="M587,65.1a2.24,2.24,0,0,0-.16,1,1.3,1.3,0,0,0,.28.89,1,1,0,0,0,.77.32,2.07,2.07,0,0,0,1.66-.85q.69-.85.93-.85c.27,0,.49.18.65.53a3,3,0,0,1,.24,1.26A7.27,7.27,0,0,1,589.83,72a11.66,11.66,0,0,1-4.74,3.65,18,18,0,0,1-7.5,1.42q-5.35,0-8.51-2.47a8.18,8.18,0,0,1-3.24-6.61,18.7,18.7,0,0,1,1.46-6.73l4.46-11.68a5,5,0,0,0,.41-1.7,2.11,2.11,0,0,0-.69-1.66,2.43,2.43,0,0,0-1.66-.61,4.76,4.76,0,0,0-3.41,1.66,9.77,9.77,0,0,0-2.35,4.1l-5,16.54a5,5,0,0,0-.33,1.7,2.79,2.79,0,0,0,.41,1.58,6.66,6.66,0,0,0,1.13,1.26,3.92,3.92,0,0,1,.81.89,1.19,1.19,0,0,1,.08,1,2.43,2.43,0,0,1-1.54,1.54,11,11,0,0,1-3.81.49H537.28a5.2,5.2,0,0,1-3-.69,1.67,1.67,0,0,1-.69-1.82,3.23,3.23,0,0,1,1.7-1.7,7.38,7.38,0,0,0,2-1.54,7.3,7.3,0,0,0,1.38-2.84l7.22-23.44a3.17,3.17,0,0,0,.16-1.13,2.26,2.26,0,0,0-.37-1.38,9.35,9.35,0,0,0-1.18-1.22,5.5,5.5,0,0,1-1.14-1.13,1.5,1.5,0,0,1-.08-1.3q.49-1.86,5.11-3.28A32.72,32.72,0,0,1,558,33.39a8.93,8.93,0,0,1,6.41,2.23,7.47,7.47,0,0,1,2.11,6.2,19.33,19.33,0,0,1,7.06-6.61,18.21,18.21,0,0,1,8.11-1.82,10.89,10.89,0,0,1,8,3,10.46,10.46,0,0,1,3,7.79,15.59,15.59,0,0,1-.81,4.95Z" style="fill:#d2cfc2"/><path d="M649.8,22.89a33.32,33.32,0,0,1,7.83,3.45l1.87-1.54a16.69,16.69,0,0,1,3.2-2.11,6.94,6.94,0,0,1,2.88-.57,5,5,0,0,1,3.08.85,2.9,2.9,0,0,1,1.14,2.47,4.37,4.37,0,0,1-.24,1.38L666.14,38a6.2,6.2,0,0,1-1.42,2.76,3.57,3.57,0,0,1-2.55.81A4.79,4.79,0,0,1,659,40.49a38,38,0,0,1-4.18-4.5,22,22,0,0,0-5.15-4.58A9.36,9.36,0,0,0,645,30.07a4.15,4.15,0,0,0-3,1.18,3.85,3.85,0,0,0-1.22,2.88,4.75,4.75,0,0,0,1.95,3.61,49.24,49.24,0,0,0,6.08,4.18q4.22,2.52,7,4.54a19.06,19.06,0,0,1,4.7,5,12.39,12.39,0,0,1,1.95,6.89,16.31,16.31,0,0,1-.81,5,16.64,16.64,0,0,1-7.54,9.85A24.84,24.84,0,0,1,641,76.62a29.44,29.44,0,0,1-9.41-1.3,27,27,0,0,1-7.79-4.38l-2.92,2.43a16.67,16.67,0,0,1-3.33,2.31,6.8,6.8,0,0,1-2.92.61,4.55,4.55,0,0,1-3-.89A3,3,0,0,1,610.59,73a5,5,0,0,1,.32-1.7l4-12.08a5.9,5.9,0,0,1,1.78-3,4.58,4.58,0,0,1,2.92-.89,5,5,0,0,1,3.37,1.3,28.7,28.7,0,0,1,3.93,4.7,19.43,19.43,0,0,0,4.83,5.19A9.48,9.48,0,0,0,637,67.94a6.72,6.72,0,0,0,3.37-.69A3.77,3.77,0,0,0,642.05,65a3.47,3.47,0,0,0,.16-1.22,4.7,4.7,0,0,0-1.87-3.57,39.6,39.6,0,0,0-5.76-3.89,77.45,77.45,0,0,1-6.73-4.5,19,19,0,0,1-4.5-5,12.87,12.87,0,0,1-1.91-7.06,18.05,18.05,0,0,1,.89-5.6,16.09,16.09,0,0,1,7-9,21.78,21.78,0,0,1,12.08-3.41A30.61,30.61,0,0,1,649.8,22.89Z" style="fill:#d2cfc2"/><path d="M719.17,37.2q3.57,4.14,3.57,11.27a33.15,33.15,0,0,1-1.05,8q-2.43,10.06-9.08,15.29A24.21,24.21,0,0,1,697.2,77a19.34,19.34,0,0,1-9.73-2.35l-2.6,8.68a5,5,0,0,0-.32,1.7,2.64,2.64,0,0,0,.41,1.5A6,6,0,0,0,686,87.73a4.63,4.63,0,0,1,.85,1.05,1.32,1.32,0,0,1,0,1,2.32,2.32,0,0,1-1.54,1.5,11.6,11.6,0,0,1-3.73.45H663.06a5.21,5.21,0,0,1-3-.69,1.37,1.37,0,0,1-.53-1.74,2.23,2.23,0,0,1,.57-1.05,3.73,3.73,0,0,1,1.14-.73,9.44,9.44,0,0,0,1.95-1.66,7.69,7.69,0,0,0,1.3-2.72l11.84-38.85a4,4,0,0,0,.24-1.22,2.28,2.28,0,0,0-.41-1.42,5.61,5.61,0,0,0-1.22-1.09,5.47,5.47,0,0,1-1.13-1.13,1.5,1.5,0,0,1-.08-1.3q.49-1.86,5.11-3.28a32.72,32.72,0,0,1,9.65-1.42,9.35,9.35,0,0,1,5.88,1.78A6.84,6.84,0,0,1,697,40.12q5.51-7.05,12.41-7.05Q715.61,33.07,719.17,37.2Zm-17.27,10a3.29,3.29,0,0,0-.53-2.23,2,2,0,0,0-1.5-.53,3.9,3.9,0,0,0-1.87.69,8,8,0,0,0-2.27,2.31l-6.41,21.25a3.2,3.2,0,0,0,2.35,1q2.19,0,4.18-2.47t4.09-10Q701.9,49.94,701.9,47.18Z" style="fill:#d2cfc2"/><path d="M770.63,37.85a14.61,14.61,0,0,1,5.23,11.68,25.92,25.92,0,0,1-.65,5.43,27.27,27.27,0,0,1-5.76,11.64,28.45,28.45,0,0,1-10.34,7.7A32.3,32.3,0,0,1,745.86,77q-11.27,0-16.67-4.5a14.79,14.79,0,0,1-5.39-12,27.32,27.32,0,0,1,.65-5.6,26,26,0,0,1,5.88-11.23,29.7,29.7,0,0,1,10.62-7.62,33.45,33.45,0,0,1,13.42-2.72Q765.4,33.39,770.63,37.85Zm-20.11,5.8q-1.91,3-4.5,11.47T743.42,67a3.62,3.62,0,0,0,.57,2.39,2,2,0,0,0,1.54.61q1.7.16,3.53-2.92t4.58-12q2.51-7.86,2.51-11.43a3.86,3.86,0,0,0-.53-2.35,1.82,1.82,0,0,0-1.5-.65Q752.42,40.61,750.52,43.65Z" style="fill:#d2cfc2"/><path d="M830.07,35.95a8.09,8.09,0,0,1,2.8,6.2,7.9,7.9,0,0,1-2.35,6.08,8.68,8.68,0,0,1-6.16,2.19,7.42,7.42,0,0,1-5.27-1.74,5,5,0,0,1-1.78-3.93,1.3,1.3,0,0,0-1.38.65,11.54,11.54,0,0,0-1.22,3.16,7,7,0,0,1-1.54,2.84q5.51.41,8.19,2.51A6.61,6.61,0,0,1,824,59.34a9.78,9.78,0,0,1-.57,3.24l-.65,2.51a2.86,2.86,0,0,0-.16,1.05c0,.76.35,1.13,1.05,1.13a2.07,2.07,0,0,0,1.66-.85q.69-.85.93-.85c.27,0,.49.18.65.53a3,3,0,0,1,.24,1.26A7.62,7.62,0,0,1,825.77,72a10.77,10.77,0,0,1-4.54,3.65A17.27,17.27,0,0,1,813.89,77a14,14,0,0,1-8.64-2.59,8.13,8.13,0,0,1-3.45-6.81,11.16,11.16,0,0,1,.65-3.49L804,60.07a9.05,9.05,0,0,0,.41-2.11,1.76,1.76,0,0,0-.69-1.54,3.77,3.77,0,0,0-2.15-.49h-1.62L796.3,67.86a7.15,7.15,0,0,0-.24,1.7,3,3,0,0,0,.41,1.66,5.13,5.13,0,0,0,1.14,1.18,6.75,6.75,0,0,1,.81.93,1.08,1.08,0,0,1,.08.93,2.7,2.7,0,0,1-1.62,1.54,10.69,10.69,0,0,1-3.73.49H774.64a5.41,5.41,0,0,1-3.08-.69,1.54,1.54,0,0,1-.65-1.82,3.23,3.23,0,0,1,1.7-1.7,7.41,7.41,0,0,0,2-1.54A7.3,7.3,0,0,0,776,67.7l12.33-40.47a4,4,0,0,0,.24-1.22,2.3,2.3,0,0,0-.45-1.46A6.83,6.83,0,0,0,787,23.42a6.79,6.79,0,0,1-1.18-1.14,1.4,1.4,0,0,1-.12-1.3q.49-1.86,5.11-3.24a33.61,33.61,0,0,1,9.65-1.38q4.7,0,6.89,1.74a5.83,5.83,0,0,1,2.19,4.83,11.22,11.22,0,0,1-.57,3.57l-7.06,23h2.68a3.65,3.65,0,0,0,2.63-1,6.47,6.47,0,0,0,1.58-2.84,22.75,22.75,0,0,1,5.27-9.16,11.78,11.78,0,0,1,8.6-3.16A10.58,10.58,0,0,1,830.07,35.95Z" style="fill:#d2cfc2"/><path d="M873.66,36.27a9.92,9.92,0,0,1,4.62,8.39A11.7,11.7,0,0,1,878,47.5a10.58,10.58,0,0,1-6.77,7.66,34,34,0,0,1-13.1,2.31A49.37,49.37,0,0,1,851,57q-.08,4.22,2.27,5.92a11,11,0,0,0,6.57,1.7,15.31,15.31,0,0,0,3.73-.45q1.78-.44,4.54-1.34a11.57,11.57,0,0,1,3.08-.81q.89,0,.89,1.05a10,10,0,0,1-2.11,6,17.29,17.29,0,0,1-6.49,5.31,22.65,22.65,0,0,1-10.38,2.19q-9,0-14.76-4.54t-5.76-13.22a29.35,29.35,0,0,1,.65-5.68q2-10,8.88-15T858.74,33Q869,33,873.66,36.27ZM852.41,52.21A5.65,5.65,0,0,0,857.6,49a13.54,13.54,0,0,0,1.7-7.06q-.08-2.27-1.3-2.27-.89,0-2.11,1.42a16.14,16.14,0,0,0-2.39,4.26,37.76,37.76,0,0,0-2,6.73A3.8,3.8,0,0,0,852.41,52.21Z" style="fill:#d2cfc2"/></g></g></svg>